<?xml version="1.0" encoding="UTF-8" standalone="no"?><!DOCTYPE svg PUBLIC "-//W3C//DTD SVG 1.1//EN" "http://www.w3.org/Graphics/SVG/1.1/DTD/svg11.dtd"><svg width="100%" height="100%" viewBox="0 0 3514 614" version="1.1" xmlns="http://www.w3.org/2000/svg" xmlns:xlink="http://www.w3.org/1999/xlink" xml:space="preserve" xmlns:serif="http://www.serif.com/" style="fill-rule:evenodd;clip-rule:evenodd;stroke-linejoin:round;stroke-miterlimit:2;"><rect id="Artboard1" x="0" y="0" width="3513.15" height="613.466" style="fill:none;"/><path d="M618.254,44.025l0,-15.783c-227.516,-0 -15.779,289.8 -257.412,290.625l-0,-176.863c-0,-71.412 5.812,-92.175 83.037,-92.175l0,-14.942l-244.958,0l-0,14.942c77.225,0 83.037,20.763 83.037,92.175l0,176.863c-241.633,-0.825 -29.895,-290.625 -257.408,-290.625l0,15.783c58.125,5.804 36.529,160.254 56.458,208.417c32.392,78.054 126.217,93.829 200.95,96.32l0,128.705c0,70.579 -6.645,92.166 -83.037,92.166l-0,14.95l244.958,0l0,-14.95c-76.391,0 -83.037,-21.587 -83.037,-92.166l-0,-128.705c74.733,-2.491 168.558,-18.266 200.95,-96.32c19.929,-48.163 -1.663,-202.613 56.462,-208.417" style="fill-rule:nonzero;"/><path d="M1309.09,35.267l117.125,-0l-155.288,551.4l-110.008,-0l-66.6,-322.463l-19.454,-106.612l-19.459,106.612l-66.6,322.463l-107.012,-0l-156.4,-551.4l122.354,-0l72.962,315.729l15.713,87.908l16.092,-86.033l62.108,-317.604l121.604,-0l65.479,315.729l16.838,87.908l16.841,-84.542l73.705,-319.095" style="fill-rule:nonzero;"/><path d="M1678.93,31.942l0,86.546c-6.045,-0.796 -16.025,-1.305 -30.116,-1.68c-14.117,-0.416 -23.825,2.738 -29.188,9.33c-5.379,6.487 -8.046,13.866 -8.046,21.825l0,34.316l69.971,0l0,75.384l-69.971,-0l0,329.004l-106.2,-0l0,-329.004l-59.62,-0l-0,-75.384l58.37,0l0,-26.158c-0.129,-43.696 7.363,-73.617 22.084,-90.058c15.354,-24.492 52.796,-36.621 111.933,-36.621c6.654,-0.092 12.842,0.208 18.329,0.625c5.413,0.396 12.975,1.041 22.454,1.875" style="fill-rule:nonzero;"/><path d="M2003.25,586.667l-249.95,-0l0,-551.4l267.904,-0c67.475,0.908 115.496,20.579 143.684,58.737c16.862,23.358 25.445,51.5 25.445,84.179c-0.112,33.579 -8.483,60.729 -25.445,81.184c-9.58,11.4 -23.446,21.941 -41.905,31.42c28.163,10.105 49.446,26.438 63.788,48.634c14.308,22.108 21.517,49.121 21.517,80.787c-0.125,32.6 -8.234,61.971 -24.692,87.909c-10.567,17.141 -23.575,31.67 -39.292,43.391c-17.754,13.38 -38.6,22.692 -62.671,27.679c-24.2,4.98 -50.2,7.48 -78.383,7.48Zm-2.683,-242.8l-137.317,-0l0,147.012l135.45,0c24.067,-0.017 43.021,-3.241 56.496,-9.725c24.379,-12.079 36.667,-34.912 36.667,-68.829c-0.067,-28.762 -11.846,-48.383 -35.542,-59.104c-13.246,-6.088 -31.808,-9.109 -55.754,-9.354Zm57.254,-105.05c14.858,-9.005 22.446,-25.067 22.446,-48.263c-0.088,-25.742 -9.979,-42.658 -29.934,-50.887c-17.325,-5.767 -39.166,-8.613 -65.854,-8.613l-121.229,0l0,121.608l135.45,0c24.067,-0.054 43.896,-4.616 59.121,-13.845" style="fill-rule:nonzero;"/><path d="M2311.62,222.896c28.067,-36.096 76.583,-53.946 145.175,-53.946c44.612,-0.067 84.304,8.862 118.954,26.579c34.542,17.679 51.979,51.154 51.979,100.313l0,187.145c-0.079,12.95 0.275,28.696 0.834,47.163c0.67,13.925 2.862,23.458 6.354,28.45c3.379,4.9 8.733,9.1 15.721,12.346l-0,15.721l-116.042,-0c-3.246,-8.209 -5.488,-15.917 -6.738,-23.125c-1.366,-7.284 -2.245,-15.421 -2.995,-24.621c-14.784,15.921 -31.642,29.579 -50.85,40.812c-23.038,13.179 -48.892,19.842 -77.83,19.842c-37.033,-0.133 -67.412,-10.542 -91.483,-31.633c-24.112,-21.1 -36.104,-50.984 -36.104,-89.675c-0.092,-50.284 19.329,-86.488 57.992,-108.959c21.095,-12.271 52.387,-20.958 93.541,-26.204l36.296,-4.492c19.646,-2.587 33.8,-5.612 42.279,-9.362c15.092,-6.517 22.825,-16.596 22.825,-30.325c-0.091,-16.783 -5.8,-28.271 -17.4,-34.633c-11.725,-6.405 -28.621,-9.546 -51.071,-9.546c-25.241,-0.054 -43.029,6.237 -53.5,18.712c-7.616,9.184 -12.479,21.696 -14.966,37.413l-102.904,-0c2.241,-35.679 12.225,-64.992 29.933,-87.975Zm79.283,286.721c9.954,8.216 22.2,12.341 36.667,12.341c22.929,-0.096 44.091,-6.733 63.425,-20.2c19.279,-13.504 29.371,-38.041 30.117,-73.712l-0.001,-39.663c-6.824,4.221 -13.529,7.667 -20.391,10.288c-6.958,2.512 -16.271,5.058 -28.246,7.3l-23.946,4.483c-22.517,3.983 -38.542,8.863 -48.266,14.596c-16.55,9.712 -24.696,24.821 -24.696,45.275c-0.05,18.104 5.112,31.308 15.337,39.292" style="fill-rule:nonzero;"/><path d="M3004.1,197.617c31.817,20.429 50.267,55.654 55.004,105.554l-106.637,-0c-1.625,-13.804 -5.363,-24.571 -11.596,-32.554c-11.738,-14.538 -31.684,-21.704 -59.871,-21.704c-23.254,-0.055 -39.725,3.616 -49.575,10.845c-9.908,7.175 -14.779,15.709 -14.779,25.43c-0.129,12.154 5.237,21.066 15.716,26.55c10.384,5.708 47.517,15.579 111.125,29.537c42.355,9.963 74.209,25.054 95.417,45.25c20.9,20.35 31.425,45.992 31.425,76.65c-0.108,40.3 -15.029,73.358 -45.092,98.908c-30.133,25.55 -76.512,38.325 -139.375,38.325c-64.112,-0.133 -111.437,-13.554 -141.995,-40.662c-30.596,-27.167 -45.834,-61.621 -45.834,-103.529l108.138,-0c2.129,18.833 7.104,32.429 14.587,40.412c13.109,14.088 37.667,21.321 73.334,21.321c20.841,-0.012 37.608,-3.112 49.954,-9.342c12.25,-6.32 18.525,-15.575 18.525,-28.041c-0.025,-12.017 -4.992,-21.063 -14.971,-27.292c-10.004,-6.35 -47.017,-16.946 -111.125,-32.154c-46.221,-11.554 -78.696,-25.788 -97.654,-42.983c-18.984,-17.021 -28.438,-41.375 -28.438,-73.275c-0.129,-37.73 14.779,-69.971 44.334,-97.013c29.52,-27.158 71.158,-40.567 124.791,-40.567c50.771,-0.066 92.417,10.113 124.592,30.334" style="fill-rule:nonzero;"/><path d="M3498.45,466.6c-2.783,24.075 -15.342,48.783 -37.788,73.762c-35.004,39.634 -83.812,59.63 -146.675,59.63c-51.962,-0.134 -97.654,-16.7 -137.316,-50.105c-39.663,-33.504 -59.492,-87.741 -59.492,-163.025c-0.033,-70.612 17.896,-124.637 53.692,-162.279c35.783,-37.641 82.25,-56.466 139.375,-56.466c33.841,-0.067 64.479,6.354 91.666,19.062c27.109,12.679 49.642,32.767 67.35,60.171c15.934,24.083 26.317,52.2 31.063,84.087c2.633,18.63 3.862,45.6 3.362,80.73l-279.125,-0c1.363,40.8 14.338,69.462 38.542,85.891c14.65,10.159 32.421,15.309 53.129,15.309c21.817,-0.013 39.784,-6.234 53.504,-18.705c7.434,-6.758 14.092,-16.083 19.83,-28.062l108.883,-0Zm-105.517,-124.817c-1.75,-28.133 -10.287,-49.416 -25.629,-63.962c-15.412,-14.659 -34.362,-21.825 -57.058,-21.825c-24.779,-0.054 -43.842,7.708 -57.438,23.125c-13.696,15.291 -22.137,36.304 -25.629,62.662l165.754,0" style="fill-rule:nonzero;"/><path d="M1292.42,18.6l117.125,-0l-155.288,551.4l-110.008,0l-66.6,-322.463l-19.454,-106.612l-19.458,106.612l-66.6,322.463l-107.013,0l-156.4,-551.4l122.354,-0l72.963,315.729l15.712,87.908l16.092,-86.033l62.108,-317.604l121.604,-0l65.48,315.729l16.837,87.908l16.842,-84.541l73.704,-319.096" style="fill:#d5e4ef;fill-rule:nonzero;"/><path d="M1662.27,15.275l-0,86.546c-6.046,-0.796 -16.025,-1.304 -30.117,-1.679c-14.117,-0.417 -23.825,2.737 -29.187,9.329c-5.38,6.487 -8.046,13.867 -8.046,21.825l-0,34.317l69.97,-0l0,75.383l-69.97,-0l-0,329.004l-106.2,0l-0,-329.004l-59.621,-0l-0,-75.383l58.371,-0l-0,-26.159c-0.129,-43.696 7.362,-73.616 22.083,-90.058c15.354,-24.492 52.796,-36.621 111.933,-36.621c6.654,-0.092 12.842,0.208 18.33,0.625c5.412,0.396 12.975,1.042 22.454,1.875" style="fill:#d5e4ef;fill-rule:nonzero;"/><path d="M1986.58,570l-249.95,0l0,-551.4l267.905,-0c67.475,0.908 115.495,20.579 143.683,58.737c16.862,23.359 25.446,51.5 25.446,84.18c-0.113,33.579 -8.484,60.729 -25.446,81.183c-9.579,11.4 -23.446,21.942 -41.904,31.421c28.162,10.104 49.446,26.437 63.787,48.633c14.309,22.108 21.517,49.121 21.517,80.788c-0.125,32.6 -8.233,61.97 -24.692,87.908c-10.566,17.142 -23.575,31.671 -39.291,43.392c-17.755,13.379 -38.6,22.691 -62.671,27.679c-24.2,4.979 -50.2,7.479 -78.384,7.479Zm-2.683,-242.8l-137.317,-0l0,147.012l135.45,0c24.067,-0.016 43.021,-3.241 56.496,-9.725c24.379,-12.079 36.667,-34.912 36.667,-68.829c-0.067,-28.762 -11.846,-48.383 -35.542,-59.104c-13.246,-6.087 -31.808,-9.108 -55.754,-9.354Zm57.254,-105.05c14.859,-9.004 22.446,-25.067 22.446,-48.263c-0.087,-25.741 -9.979,-42.658 -29.933,-50.887c-17.325,-5.767 -39.167,-8.613 -65.854,-8.613l-121.23,0l0,121.609l135.45,-0c24.067,-0.054 43.896,-4.617 59.121,-13.846" style="fill:#d5e4ef;fill-rule:nonzero;"/><path d="M2294.95,206.229c28.067,-36.096 76.584,-53.946 145.175,-53.946c44.613,-0.066 84.304,8.863 118.954,26.579c34.542,17.68 51.98,51.155 51.98,100.313l-0,187.146c-0.08,12.95 0.274,28.696 0.833,47.162c0.671,13.925 2.862,23.459 6.354,28.45c3.379,4.9 8.733,9.1 15.721,12.346l-0,15.721l-116.042,-0c-3.246,-8.208 -5.487,-15.917 -6.737,-23.125c-1.367,-7.283 -2.246,-15.421 -2.996,-24.621c-14.783,15.921 -31.642,29.579 -50.85,40.813c-23.038,13.179 -48.892,19.841 -77.829,19.841c-37.034,-0.133 -67.413,-10.541 -91.484,-31.633c-24.112,-21.1 -36.104,-50.983 -36.104,-89.675c-0.091,-50.283 19.329,-86.488 57.992,-108.958c21.096,-12.271 52.387,-20.959 93.542,-26.205l36.295,-4.491c19.646,-2.588 33.8,-5.613 42.28,-9.363c15.091,-6.516 22.824,-16.596 22.824,-30.325c-0.091,-16.783 -5.8,-28.271 -17.4,-34.633c-11.725,-6.404 -28.62,-9.546 -51.07,-9.546c-25.242,-0.054 -43.03,6.238 -53.5,18.713c-7.617,9.183 -12.48,21.695 -14.967,37.412l-102.904,0c2.241,-35.679 12.225,-64.992 29.933,-87.975Zm79.284,286.721c9.954,8.217 22.199,12.342 36.666,12.342c22.929,-0.096 44.092,-6.734 63.425,-20.2c19.279,-13.505 29.371,-38.042 30.117,-73.713l-0,-39.662c-6.825,4.22 -13.529,7.666 -20.392,10.287c-6.958,2.513 -16.271,5.058 -28.246,7.3l-23.946,4.483c-22.516,3.984 -38.541,8.863 -48.266,14.596c-16.55,9.713 -24.696,24.821 -24.696,45.275c-0.05,18.104 5.112,31.309 15.337,39.292" style="fill:#d5e4ef;fill-rule:nonzero;"/><path d="M2987.43,180.95c31.817,20.429 50.267,55.654 55.004,105.554l-106.637,0c-1.625,-13.804 -5.363,-24.571 -11.596,-32.554c-11.737,-14.538 -31.683,-21.704 -59.871,-21.704c-23.254,-0.054 -39.725,3.616 -49.575,10.846c-9.908,7.175 -14.779,15.708 -14.779,25.429c-0.129,12.154 5.238,21.067 15.717,26.55c10.383,5.708 47.516,15.579 111.125,29.537c42.354,9.963 74.208,25.054 95.416,45.25c20.9,20.35 31.425,45.992 31.425,76.65c-0.108,40.3 -15.029,73.359 -45.091,98.909c-30.134,25.55 -76.513,38.325 -139.375,38.325c-64.113,-0.134 -111.438,-13.554 -141.996,-40.663c-30.596,-27.167 -45.833,-61.621 -45.833,-103.529l108.137,0c2.129,18.833 7.104,32.429 14.588,40.413c13.108,14.087 37.666,21.32 73.333,21.32c20.841,-0.012 37.608,-3.112 49.954,-9.341c12.25,-6.321 18.525,-15.575 18.525,-28.042c-0.025,-12.017 -4.992,-21.063 -14.971,-27.292c-10.004,-6.35 -47.017,-16.946 -111.125,-32.154c-46.221,-11.554 -78.696,-25.787 -97.654,-42.983c-18.983,-17.021 -28.438,-41.375 -28.438,-73.275c-0.129,-37.729 14.78,-69.971 44.334,-97.013c29.521,-27.158 71.158,-40.566 124.792,-40.566c50.77,-0.067 92.416,10.112 124.591,30.333" style="fill:#d5e4ef;fill-rule:nonzero;"/><path d="M3481.78,449.933c-2.783,24.075 -15.341,48.784 -37.787,73.763c-35.004,39.633 -83.813,59.629 -146.675,59.629c-51.963,-0.133 -97.654,-16.7 -137.317,-50.104c-39.662,-33.504 -59.492,-87.742 -59.492,-163.025c-0.033,-70.613 17.896,-124.638 53.692,-162.279c35.783,-37.642 82.25,-56.467 139.375,-56.467c33.842,-0.067 64.479,6.354 91.667,19.062c27.108,12.68 49.641,32.767 67.35,60.171c15.933,24.084 26.316,52.2 31.062,84.088c2.634,18.629 3.863,45.6 3.363,80.729l-279.125,-0c1.362,40.8 14.337,69.462 38.541,85.892c14.65,10.158 32.421,15.308 53.13,15.308c21.816,-0.013 39.783,-6.233 53.504,-18.704c7.433,-6.759 14.091,-16.084 19.829,-28.063l108.883,0Zm-105.516,-124.816c-1.75,-28.134 -10.288,-49.417 -25.63,-63.963c-15.412,-14.658 -34.362,-21.825 -57.058,-21.825c-24.779,-0.054 -43.842,7.708 -57.437,23.125c-13.696,15.292 -22.138,36.304 -25.63,62.663l165.755,-0" style="fill:#d5e4ef;fill-rule:nonzero;"/><path d="M601.588,27.358l-0,-15.783c-227.517,-0 -15.78,289.8 -257.413,290.625l0,-176.863c0,-71.412 5.813,-92.175 83.038,-92.175l-0,-14.941l-244.959,-0l0,14.941c77.225,0 83.038,20.763 83.038,92.175l-0,176.863c-241.634,-0.825 -29.896,-290.625 -257.409,-290.625l0,15.783c58.125,5.804 36.53,160.254 56.459,208.417c32.391,78.054 126.216,93.829 200.95,96.321l-0,128.704c-0,70.579 -6.646,92.167 -83.038,92.167l0,14.95l244.959,-0l-0,-14.95c-76.392,-0 -83.038,-21.588 -83.038,-92.167l0,-128.704c74.733,-2.492 168.558,-18.267 200.95,-96.321c19.929,-48.163 -1.662,-202.613 56.463,-208.417" style="fill:#fbd2bb;fill-rule:nonzero;"/></svg>